[2024-08-14 16:51:34 +0800] [19342] [INFO] Starting gunicorn 23.0.0
[2024-08-14 16:51:34 +0800] [19342] [INFO] Listening at: http://0.0.0.0:8000 (19342)
[2024-08-14 16:51:34 +0800] [19342] [INFO] Using worker: sync
[2024-08-14 16:51:34 +0800] [19344] [INFO] Booting worker with pid: 19344
[2024-08-14 16:51:34 +0800] [19345] [INFO] Booting worker with pid: 19345
[2024-08-14 16:51:34 +0800] [19346] [INFO] Booting worker with pid: 19346
[2024-08-14 16:51:34 +0800] [19347] [INFO] Booting worker with pid: 19347
ffmpeg version 4.4.2-0ubuntu0.22.04.1 Copyright (c) 2000-2021 the FFmpeg developers
  built with gcc 11 (Ubuntu 11.2.0-19ubuntu1)
  configuration: --prefix=/usr --extra-version=0ubuntu0.22.04.1 --toolchain=hardened --libdir=/usr/lib/x86_64-linux-gnu --incdir=/usr/include/x86_64-linux-gnu --arch=amd64 --enable-gpl --disable-stripping --enable-gnutls --enable-ladspa --enable-libaom --enable-libass --enable-libbluray --enable-libbs2b --enable-libcaca --enable-libcdio --enable-libcodec2 --enable-libdav1d --enable-libflite --enable-libfontconfig --enable-libfreetype --enable-libfribidi --enable-libgme --enable-libgsm --enable-libjack --enable-libmp3lame --enable-libmysofa --enable-libopenjpeg --enable-libopenmpt --enable-libopus --enable-libpulse --enable-librabbitmq --enable-librubberband --enable-libshine --enable-libsnappy --enable-libsoxr --enable-libspeex --enable-libsrt --enable-libssh --enable-libtheora --enable-libtwolame --enable-libvidstab --enable-libvorbis --enable-libvpx --enable-libwebp --enable-libx265 --enable-libxml2 --enable-libxvid --enable-libzimg --enable-libzmq --enable-libzvbi --enable-lv2 --enable-omx --enable-openal --enable-opencl --enable-opengl --enable-sdl2 --enable-pocketsphinx --enable-librsvg --enable-libmfx --enable-libdc1394 --enable-libdrm --enable-libiec61883 --enable-chromaprint --enable-frei0r --enable-libx264 --enable-shared
  libavutil      56. 70.100 / 56. 70.100
  libavcodec     58.134.100 / 58.134.100
  libavformat    58. 76.100 / 58. 76.100
  libavdevice    58. 13.100 / 58. 13.100
  libavfilter     7.110.100 /  7.110.100
  libswscale      5.  9.100 /  5.  9.100
  libswresample   3.  9.100 /  3.  9.100
  libpostproc    55.  9.100 / 55.  9.100
Input #0, mp3, from './tmp/origin_temp_voice_2_text.mp3':
  Metadata:
    encoder         : Lavf59.16.100
  Duration: 00:00:17.63, start: 0.025057, bitrate: 192 kb/s
  Stream #0:0: Audio: mp3, 44100 Hz, mono, fltp, 192 kb/s
Stream mapping:
  Stream #0:0 -> #0:0 (mp3 (mp3float) -> mp3 (libmp3lame))
Press [q] to stop, [?] for help
Output #0, mp3, to './tmp/convert_temp_voice_2_text.mp3':
  Metadata:
    TSSE            : Lavf58.76.100
  Stream #0:0: Audio: mp3, 16000 Hz, mono, fltp, 128 kb/s
    Metadata:
      encoder         : Lavc58.134.100 libmp3lame
size=       1kB time=00:00:00.00 bitrate=N/A speed=N/A    [libmp3lame @ 0x5557cc470800] Trying to remove 576 samples, but the queue is empty
size=     277kB time=00:00:17.60 bitrate= 129.1kbits/s speed= 213x    
video:0kB audio:277kB subtitle:0kB other streams:0kB global headers:0kB muxing overhead: 0.219131%
ffmpeg version 4.4.2-0ubuntu0.22.04.1 Copyright (c) 2000-2021 the FFmpeg developers
  built with gcc 11 (Ubuntu 11.2.0-19ubuntu1)
  configuration: --prefix=/usr --extra-version=0ubuntu0.22.04.1 --toolchain=hardened --libdir=/usr/lib/x86_64-linux-gnu --incdir=/usr/include/x86_64-linux-gnu --arch=amd64 --enable-gpl --disable-stripping --enable-gnutls --enable-ladspa --enable-libaom --enable-libass --enable-libbluray --enable-libbs2b --enable-libcaca --enable-libcdio --enable-libcodec2 --enable-libdav1d --enable-libflite --enable-libfontconfig --enable-libfreetype --enable-libfribidi --enable-libgme --enable-libgsm --enable-libjack --enable-libmp3lame --enable-libmysofa --enable-libopenjpeg --enable-libopenmpt --enable-libopus --enable-libpulse --enable-librabbitmq --enable-librubberband --enable-libshine --enable-libsnappy --enable-libsoxr --enable-libspeex --enable-libsrt --enable-libssh --enable-libtheora --enable-libtwolame --enable-libvidstab --enable-libvorbis --enable-libvpx --enable-libwebp --enable-libx265 --enable-libxml2 --enable-libxvid --enable-libzimg --enable-libzmq --enable-libzvbi --enable-lv2 --enable-omx --enable-openal --enable-opencl --enable-opengl --enable-sdl2 --enable-pocketsphinx --enable-librsvg --enable-libmfx --enable-libdc1394 --enable-libdrm --enable-libiec61883 --enable-chromaprint --enable-frei0r --enable-libx264 --enable-shared
  libavutil      56. 70.100 / 56. 70.100
  libavcodec     58.134.100 / 58.134.100
  libavformat    58. 76.100 / 58. 76.100
  libavdevice    58. 13.100 / 58. 13.100
  libavfilter     7.110.100 /  7.110.100
  libswscale      5.  9.100 /  5.  9.100
  libswresample   3.  9.100 /  3.  9.100
  libpostproc    55.  9.100 / 55.  9.100
Input #0, mp3, from './tmp/origin_temp_voice_2_text.mp3':
  Metadata:
    encoder         : Lavf59.16.100
  Duration: 00:00:17.63, start: 0.025057, bitrate: 192 kb/s
  Stream #0:0: Audio: mp3, 44100 Hz, mono, fltp, 192 kb/s
Stream mapping:
  Stream #0:0 -> #0:0 (mp3 (mp3float) -> mp3 (libmp3lame))
Press [q] to stop, [?] for help
Output #0, mp3, to './tmp/convert_temp_voice_2_text.mp3':
  Metadata:
    TSSE            : Lavf58.76.100
  Stream #0:0: Audio: mp3, 16000 Hz, mono, fltp, 128 kb/s
    Metadata:
      encoder         : Lavc58.134.100 libmp3lame
size=       1kB time=00:00:00.00 bitrate=N/A speed=   0x    [libmp3lame @ 0x55fe5438c800] Trying to remove 576 samples, but the queue is empty
size=     277kB time=00:00:17.60 bitrate= 129.1kbits/s speed= 205x    
video:0kB audio:277kB subtitle:0kB other streams:0kB global headers:0kB muxing overhead: 0.219131%
ffmpeg version 4.4.2-0ubuntu0.22.04.1 Copyright (c) 2000-2021 the FFmpeg developers
  built with gcc 11 (Ubuntu 11.2.0-19ubuntu1)
  configuration: --prefix=/usr --extra-version=0ubuntu0.22.04.1 --toolchain=hardened --libdir=/usr/lib/x86_64-linux-gnu --incdir=/usr/include/x86_64-linux-gnu --arch=amd64 --enable-gpl --disable-stripping --enable-gnutls --enable-ladspa --enable-libaom --enable-libass --enable-libbluray --enable-libbs2b --enable-libcaca --enable-libcdio --enable-libcodec2 --enable-libdav1d --enable-libflite --enable-libfontconfig --enable-libfreetype --enable-libfribidi --enable-libgme --enable-libgsm --enable-libjack --enable-libmp3lame --enable-libmysofa --enable-libopenjpeg --enable-libopenmpt --enable-libopus --enable-libpulse --enable-librabbitmq --enable-librubberband --enable-libshine --enable-libsnappy --enable-libsoxr --enable-libspeex --enable-libsrt --enable-libssh --enable-libtheora --enable-libtwolame --enable-libvidstab --enable-libvorbis --enable-libvpx --enable-libwebp --enable-libx265 --enable-libxml2 --enable-libxvid --enable-libzimg --enable-libzmq --enable-libzvbi --enable-lv2 --enable-omx --enable-openal --enable-opencl --enable-opengl --enable-sdl2 --enable-pocketsphinx --enable-librsvg --enable-libmfx --enable-libdc1394 --enable-libdrm --enable-libiec61883 --enable-chromaprint --enable-frei0r --enable-libx264 --enable-shared
  libavutil      56. 70.100 / 56. 70.100
  libavcodec     58.134.100 / 58.134.100
  libavformat    58. 76.100 / 58. 76.100
  libavdevice    58. 13.100 / 58. 13.100
  libavfilter     7.110.100 /  7.110.100
  libswscale      5.  9.100 /  5.  9.100
  libswresample   3.  9.100 /  3.  9.100
  libpostproc    55.  9.100 / 55.  9.100
Input #0, mp3, from './tmp/origin_temp_voice_2_text.mp3':
  Metadata:
    encoder         : Lavf59.16.100
  Duration: 00:00:17.63, start: 0.025057, bitrate: 192 kb/s
  Stream #0:0: Audio: mp3, 44100 Hz, mono, fltp, 192 kb/s
Stream mapping:
  Stream #0:0 -> #0:0 (mp3 (mp3float) -> mp3 (libmp3lame))
Press [q] to stop, [?] for help
Output #0, mp3, to './tmp/convert_temp_voice_2_text.mp3':
  Metadata:
    TSSE            : Lavf58.76.100
  Stream #0:0: Audio: mp3, 16000 Hz, mono, fltp, 128 kb/s
    Metadata:
      encoder         : Lavc58.134.100 libmp3lame
size=       1kB time=00:00:00.00 bitrate=N/A speed=   0x    [libmp3lame @ 0x55d1bde79800] Trying to remove 576 samples, but the queue is empty
size=     277kB time=00:00:17.60 bitrate= 129.1kbits/s speed= 233x    
video:0kB audio:277kB subtitle:0kB other streams:0kB global headers:0kB muxing overhead: 0.219131%
